<svg width="26" height="14" viewBox="0 0 26 14" fill="none" xmlns="http://www.w3.org/2000/svg">
<path d="M13 12L11.991 13.1099C12.5631 13.63 13.4369 13.63 14.009 13.1099L13 12ZM25.009 3.10991C25.622 2.55265 25.6672 1.60398 25.1099 0.990991C24.5526 0.378004 23.604 0.332829 22.991 0.89009L25.009 3.10991ZM3.00901 0.89009C2.39602 0.332829 1.44735 0.378004 0.89009 0.990991C0.332829 1.60398 0.378004 2.55265 0.990991 3.10991L3.00901 0.89009ZM14.009 13.1099L25.009 3.10991L22.991 0.89009L11.991 10.8901L14.009 13.1099ZM14.009 10.8901L3.00901 0.89009L0.990991 3.10991L11.991 13.1099L14.009 10.8901Z" fill="white"/>
</svg>
