<svg width="16" height="16" viewBox="0 0 16 16" fill="none" xmlns="http://www.w3.org/2000/svg">
<g opacity="0.8">
<path d="M13.1852 13.8667H2.81479V5.8H13.1852M13.1852 2.13333H12.4444V0.666664H10.9629V2.13333H5.03702V0.666664H3.55554V2.13333H2.81479C2.42188 2.13333 2.04506 2.28785 1.76723 2.56291C1.4894 2.83796 1.33331 3.21101 1.33331 3.6V13.8667C1.33331 14.2556 1.4894 14.6287 1.76723 14.9038C2.04506 15.1788 2.42188 15.3333 2.81479 15.3333H13.1852C13.5781 15.3333 13.9549 15.1788 14.2327 14.9038C14.5106 14.6287 14.6666 14.2556 14.6666 13.8667V3.6C14.6666 3.21101 14.5106 2.83796 14.2327 2.56291C13.9549 2.28785 13.5781 2.13333 13.1852 2.13333ZM11.3555 8.044L10.5703 7.26666L6.95553 10.8453L5.38516 9.29066L4.59998 10.068L6.95553 12.4L11.3555 8.044Z" fill="white"/>
</g>
</svg>
