<svg width="26" height="26" viewBox="0 0 26 26" fill="none" xmlns="http://www.w3.org/2000/svg">
<path d="M23.5192 9.43584C24.8733 8.08167 24.2558 6.5 23.5192 5.73084L20.2692 2.48084C18.9042 1.12667 17.3333 1.74417 16.5642 2.48084L14.7225 4.33334H11.9167C9.85834 4.33334 8.66667 5.41667 8.06 6.6625L3.25 11.4725V15.8058L2.48084 16.5642C1.12667 17.9292 1.74417 19.5 2.48084 20.2692L5.73084 23.5192C6.31584 24.1042 6.94417 24.3208 7.54 24.3208C8.30917 24.3208 9.01334 23.9417 9.43584 23.5192L12.3608 20.5833H16.25C18.0917 20.5833 19.0233 19.435 19.3592 18.3083C20.5833 17.9833 21.255 17.0517 21.5258 16.1417C23.205 15.7083 23.8333 14.1158 23.8333 13V9.75H23.1942L23.5192 9.43584ZM21.6667 13C21.6667 13.4875 21.4608 14.0833 20.5833 14.0833H19.5V15.1667C19.5 15.6542 19.2942 16.25 18.4167 16.25H17.3333V17.3333C17.3333 17.8208 17.1275 18.4167 16.25 18.4167H11.4725L7.91917 21.97C7.58334 22.2842 7.38834 22.1 7.26917 21.9808L4.03 18.7525C3.71584 18.4167 3.9 18.2217 4.01917 18.1025L5.41667 16.6942V12.3608L7.58334 10.1942V11.9167C7.58334 13.2275 8.45001 15.1667 10.8333 15.1667C13.2167 15.1667 14.0833 13.2275 14.0833 11.9167H21.6667V13ZM21.9808 7.8975L20.1392 9.75H11.9167V11.9167C11.9167 12.4042 11.7108 13 10.8333 13C9.95584 13 9.75 12.4042 9.75 11.9167V8.66667C9.75 8.16834 9.93417 6.5 11.9167 6.5H15.6108L18.0808 4.03C18.4167 3.71584 18.6117 3.9 18.7308 4.01917L21.97 7.2475C22.2842 7.58334 22.1 7.77834 21.9808 7.8975Z" fill="white"/>
</svg>
