<svg width="36" height="36" viewBox="0 0 36 36" fill="none" xmlns="http://www.w3.org/2000/svg">
<path d="M26.4 30.432L25.9487 30.2167C25.8566 30.4098 25.7305 30.5665 25.568 30.6928C25.424 30.8049 25.255 30.8718 25.046 30.8892C24.8641 30.9044 24.6843 30.8622 24.4934 30.7407L24.4935 30.7405L24.483 30.7342L18.258 26.9842L18 26.8288L17.742 26.9842L11.517 30.7342L11.5169 30.7341L11.5065 30.7407C11.3156 30.8622 11.1359 30.9044 10.954 30.8892C10.745 30.8718 10.576 30.8049 10.432 30.6928C10.2696 30.5665 10.1435 30.41 10.0514 30.2169C9.9819 30.0705 9.95875 29.8943 10.0121 29.6629C10.0121 29.6627 10.0121 29.6626 10.0122 29.6624L11.662 22.5759L11.7305 22.2816L11.5019 22.0841L5.99346 17.3252C5.81244 17.1612 5.71986 16.9952 5.68329 16.8253L5.68286 16.8233C5.64009 16.6285 5.65241 16.4439 5.71988 16.2584C5.79405 16.0544 5.89894 15.9028 6.02924 15.7888C6.13432 15.6968 6.30534 15.6133 6.58293 15.5718L13.8436 14.9356L14.1438 14.9093L14.2608 14.6316L17.0733 7.95665L17.074 7.95481C17.1598 7.74892 17.2825 7.61289 17.4422 7.52183L17.4429 7.52142C17.6369 7.41037 17.8205 7.3625 18 7.3625C18.1794 7.3625 18.3637 7.41035 18.5589 7.52162C18.7175 7.6125 18.84 7.7485 18.9259 7.95481L18.9267 7.95665L21.7392 14.6316L21.8562 14.9093L22.1563 14.9356L29.417 15.5718C29.6946 15.6133 29.8656 15.6968 29.9707 15.7888C30.101 15.9028 30.2059 16.0544 30.2801 16.2584C30.3477 16.4443 30.3604 16.6293 30.3184 16.8244C30.2809 16.9948 30.1876 17.1612 30.0065 17.3252L24.4981 22.0841L24.2695 22.2816L24.338 22.5759L25.9878 29.6624C26.0413 29.8943 26.0181 30.0708 25.9484 30.2174L26.4 30.432ZM26.4 30.432C26.525 30.169 26.55 29.875 26.475 29.55H9.52498C9.44998 29.875 9.47498 30.169 9.59998 30.432C9.72498 30.694 9.89998 30.9125 10.125 31.0875C10.35 31.2625 10.6125 31.3625 10.9125 31.3875C11.2125 31.4125 11.5 31.3375 11.775 31.1625L18 27.4125L24.225 31.1625C24.5 31.3375 24.7875 31.4125 25.0875 31.3875C25.3875 31.3625 25.65 31.2625 25.875 31.0875C26.1 30.9125 26.275 30.694 26.4 30.432Z" fill="#FFE817" stroke="#FFE817"/>
</svg>
