<svg width="26" height="26" viewBox="0 0 26 26" fill="none" xmlns="http://www.w3.org/2000/svg">
<path d="M9.5875 19.3104L13 17.2521L16.4125 19.3375L15.5188 15.4375L18.525 12.8375L14.5708 12.4854L13 8.80209L11.4292 12.4583L7.475 12.8104L10.4813 15.4375L9.5875 19.3104ZM13 19.7979L8.50417 22.5063C8.30556 22.6326 8.09792 22.6868 7.88125 22.6688C7.66458 22.6507 7.475 22.5785 7.3125 22.4521C7.15 22.3257 7.02361 22.1679 6.93333 21.9787C6.84306 21.7887 6.825 21.5764 6.87917 21.3417L8.07083 16.2229L4.08958 12.7833C3.90903 12.6208 3.79636 12.4356 3.75158 12.2276C3.70608 12.0203 3.71944 11.8174 3.79167 11.6188C3.86389 11.4201 3.97222 11.2576 4.11667 11.1313C4.26111 11.0049 4.45972 10.9236 4.7125 10.8875L9.96667 10.4271L11.9979 5.60625C12.0882 5.38959 12.2283 5.22709 12.4183 5.11875C12.6075 5.01042 12.8014 4.95625 13 4.95625C13.1986 4.95625 13.3929 5.01042 13.5828 5.11875C13.7721 5.22709 13.9118 5.38959 14.0021 5.60625L16.0333 10.4271L21.2875 10.8875C21.5403 10.9236 21.7389 11.0049 21.8833 11.1313C22.0278 11.2576 22.1361 11.4201 22.2083 11.6188C22.2806 11.8174 22.2943 12.0203 22.2495 12.2276C22.204 12.4356 22.091 12.6208 21.9104 12.7833L17.9292 16.2229L19.1208 21.3417C19.175 21.5764 19.1569 21.7887 19.0667 21.9787C18.9764 22.1679 18.85 22.3257 18.6875 22.4521C18.525 22.5785 18.3354 22.6507 18.1188 22.6688C17.9021 22.6868 17.6944 22.6326 17.4958 22.5063L13 19.7979Z" fill="white"/>
</svg>
